<svg version="1.0" xmlns="http://www.w3.org/2000/svg" width="235.000000pt" height="214.000000pt"
     viewBox="0 0 235.000000 214.000000" preserveAspectRatio="xMidYMid meet">
    <g transform="translate(0.000000,214.000000) scale(0.050000,-0.050000)" fill="#ff0000" stroke="none">
        <path d="M2008 4242 c-152 -69 -197 -156 -205 -396 l-7 -207 -130 -59 -131 -60 -102 93 c-284 256 -390 245 -738 -79 -363 -339 -385 -490 -112 -766 l121 -123 -56 -142 -55 -143 -155 0 c-353 0 -437 -112 -438 -580 0 -494 73 -593 458 -615 l192 -10 48 -108 47 -107 158 0 158 0 -61 120 c-33 66 -79 167 -101 225 -58 149 -72 155 -330 155 -296 0 -289 -8 -289 333 0 333 -5 327 283 327 249 0 255 4 319 211 23 76 64 181 90 233 73 144 67 162 -124 357 -207 211 -208 192 40 436 226 222 215 221 422 23 193 -184 179 -181 338 -92 67 37 179 88 248 113 173 62 184 83 184 349 0 278 -8 270 270 270 279 0 270 9 270 -272 0 -260 11 -281 170 -338 55 -19 164 -70 243 -113 173 -94 173 -94 370 96 191 184 184 184 409 -36 248 -244 247 -225 40 -436 -194 -198 -195 -204 -114 -384 32 -70 73 -179 92 -242 49 -170 57 -175 308 -175 288 0 282 7 282 -333 0 -334 6 -327 -288 -327 -258 0 -277 -9 -330 -150 -23 -61 -67 -158 -97 -215 -30 -58 -58 -112 -62 -120 -3 -8 65 -15 153 -15 l159 0 47 107 48 108 192 10 c385 22 458 121 458 615 -1 468 -85 580 -438 580 l-155 0 -55 143 -56 142 121 123 c273 275 250 432 -110 767 -343 320 -444 332 -720 92 l-123 -106 -130 59 -130 59 -7 207 c-8 240 -53 327 -205 396 -119 54 -565 54 -684 0z"/>
        <path d="M2168 2853 c-327 -83 -456 -261 -456 -632 -1 -210 -4 -232 -46 -274 -82 -81 -59 -154 144 -469 249 -386 418 -490 673 -412 276 85 699 750 563 885 -28 28 -34 75 -35 267 -1 271 -38 373 -176 492 -158 135 -452 198 -667 143z m12 -483 c169 -124 360 -191 623 -220 l113 -12 -25 -109 c-29 -122 -26 -129 52 -129 92 0 74 -81 -68 -317 -376 -626 -641 -635 -1024 -34 -176 276 -193 356 -78 367 l63 6 -11 155 c-21 310 146 447 355 293z"/>
        <path d="M1810 836 c-43 -23 -205 -72 -358 -110 -304 -74 -395 -113 -474 -199 -189 -208 -229 -439 -86 -504 71 -32 2845 -32 2916 0 141 64 101 299 -86 504 -77 84 -164 121 -452 192 -143 34 -309 85 -368 112 -59 27 -110 47 -111 44 -2 -3 -47 -149 -100 -325 -53 -176 -103 -332 -110 -346 -8 -15 -40 64 -74 182 -59 203 -59 209 -24 253 86 106 35 181 -123 181 -159 0 -208 -73 -123 -182 34 -44 -32 -400 -84 -452 -5 -5 -62 149 -126 343 -64 193 -121 351 -127 350 -5 0 -46 -20 -90 -43z"/>
    </g>
</svg>